<?xml version="1.0" encoding="iso-8859-1"?>
<!-- Generator: Adobe Illustrator 18.0.0, SVG Export Plug-In . SVG Version: 6.00 Build 0)  -->
<!DOCTYPE svg PUBLIC "-//W3C//DTD SVG 1.1//EN" "http://www.w3.org/Graphics/SVG/1.1/DTD/svg11.dtd">
<svg version="1.1" id="Capa_1" xmlns="http://www.w3.org/2000/svg" xmlns:xlink="http://www.w3.org/1999/xlink" x="0px" y="0px"
	 viewBox="0 0 470.665 470.665" style="enable-background:new 0 0 470.665 470.665;" xml:space="preserve">
<g>
	<path d="M244.926,431.639v-16.918c0-3.229-2.624-5.85-5.855-5.85h-7.501c-3.246,0-5.847,2.621-5.847,5.85v17.11l-22.668-55.486
		c-7.293,0-13.824,4.515-16.4,11.338l-11.123,29.458l-1.838,4.787c15.305,14.648,35.803,23.907,58.415,24.711
		c1.065,0.038,2.134,0.064,3.208,0.064c1.255,0,2.503-0.033,3.746-0.085c22.375-0.929,42.649-10.136,57.828-24.637l-1.858-4.841
		l-11.287-29.609c-2.567-6.736-9.027-11.187-16.236-11.187L244.926,431.639z"/>
	<path d="M364.266,5.373c-54.692,0-99.184,44.494-99.184,99.18c0,20.421,6.206,39.418,16.827,55.21l-46.593,46.591l-46.249-46.252
		c12.236-16.669,19.476-37.221,19.476-59.434C208.545,45.162,163.369,0,107.86,0C52.353,0,7.208,45.162,7.208,100.668
		c0,55.508,45.145,100.67,100.652,100.67c21.793,0,41.99-6.963,58.489-18.778l52.988,52.993v9.93
		c-54.848,7.789-97.175,55.055-97.175,112.024c0,62.393,50.769,113.158,113.154,113.158c62.401,0,113.162-50.765,113.162-113.158
		c0-56.974-42.327-104.242-97.191-112.026v-9.916l52.481-52.476c16.755,12.936,37.741,20.644,60.498,20.644
		c54.7,0,99.191-44.493,99.191-99.18C463.458,49.867,418.966,5.373,364.266,5.373z M107.86,185.362
		c-46.69,0-84.682-37.993-84.682-84.694c0-46.699,37.991-84.695,84.682-84.695c46.706,0,84.712,37.996,84.712,84.695
		C192.572,147.369,154.566,185.362,107.86,185.362z M332.508,357.507c0,53.588-43.591,97.184-97.191,97.184
		c-53.577,0-97.176-43.596-97.176-97.184c0-53.587,43.599-97.184,97.176-97.184C288.918,260.323,332.508,303.92,332.508,357.507z
		 M364.266,187.758c-45.891,0-83.212-37.322-83.212-83.205c0-45.882,37.322-83.204,83.212-83.204
		c45.868,0,83.212,37.322,83.212,83.204C447.478,150.436,410.134,187.758,364.266,187.758z"/>
	<path d="M198.996,320.893c0,16.208,5.906,30.584,14.973,39.469c5.996,5.875,13.372,9.354,21.348,9.354
		c7.972,0,15.349-3.479,21.347-9.354c9.069-8.885,14.981-23.261,14.981-39.469c0-26.926-16.302-48.829-36.328-48.829
		C215.283,272.064,198.996,293.967,198.996,320.893z M260.181,320.893c0,20.25-11.386,37.354-24.864,37.354
		c-13.479,0-24.857-17.104-24.857-37.354s11.378-37.364,24.857-37.364C248.795,283.528,260.181,300.643,260.181,320.893z"/>
	<path d="M229.732,401.383h11.124c1.761,0,3.4-0.904,4.332-2.396l2.454-3.916c1.67-2.642,1.762-5.981,0.247-8.72
		c-1.516-2.73-4.4-4.43-7.517-4.43h-10.171c-3.124,0-5.993,1.699-7.524,4.43c-1.493,2.738-1.401,6.078,0.253,8.72l2.463,3.916
		C226.331,400.479,227.954,401.383,229.732,401.383z"/>
	<path d="M70.32,96.002h19.897c1.453,1.59,3.006,2.98,4.646,4.176v9.787h-4.379l8.962,21.92c3.014,7.338,14.99,7.348,18.004-0.008
		l8.946-21.912h-4.363v-9.796c1.666-1.194,3.193-2.577,4.631-4.167h19.938c1.706,0,3.292-0.966,4.079-2.497
		c0.797-1.531,0.642-3.378-0.358-4.769c-4.581-6.393-8.119-14.808-9.131-21.889c-0.544-3.805-7.124-41.979-32.752-41.979
		c-23.215,0-32.75,31.26-32.75,42.119c0,7.133-4.534,15.396-9.092,21.748c-1.008,1.391-1.153,3.237-0.365,4.769
		C67.021,95.036,68.606,96.002,70.32,96.002z M108.539,54.492c10.35,0,18.621,5.658,19.264,12.752
		c-0.382,15.396-9.043,28.229-19.362,28.229c-10.181,0-18.743-12.568-19.305-27.752C89.412,60.398,97.927,54.492,108.539,54.492z"/>
	<path d="M156.945,145.643l-11.199-28.885c-1.489-3.837-5.184-6.36-9.3-6.35l-10.229,25.044
		c-2.981,7.265-9.936,11.942-17.777,11.942c-7.808,0-14.795-4.678-17.761-11.936L80.467,110.4
		c-4.778,1.298-8.657,4.785-10.456,9.397l-10.076,25.845l-2.404,6.251c-1.316,3.46-0.097,7.364,2.965,9.447
		c13.673,9.325,30.183,14.812,47.944,14.812c17.777,0,34.27-5.486,47.96-14.812c3.048-2.075,4.298-5.995,2.95-9.447L156.945,145.643
		z"/>
	<path d="M412.202,148.762l-8.746-22.959c-2.045-5.365-6.906-9.176-12.607-9.87c-0.001-0.001-0.001-0.001-0.003-0.001
		c-2.277,12.84-13.444,22.703-26.936,22.703c-13.499,0-24.666-9.855-26.958-22.703c-5.654,0.724-10.447,4.491-12.491,9.813
		l-8.84,23.018l-2.34,6.111c-1.393,3.598-0.056,7.656,3.176,9.764c13.69,8.893,29.96,14.113,47.455,14.113
		c17.496,0,33.767-5.221,47.448-14.113c3.232-2.1,4.553-6.174,3.185-9.764L412.202,148.762z"/>
	<path d="M349.997,105.515v10.274h-3.327c2.085,7.738,8.843,13.565,17.24,13.565c8.391,0,15.156-5.826,17.233-13.565h-3.319v-10.274
		c9.146-6.69,15.442-19.579,15.442-34.532c0-21.756-13.173-39.463-29.356-39.463c-16.189,0-29.363,17.707-29.363,39.463
		C334.547,85.936,340.844,98.824,349.997,105.515z M363.91,40.791c10.874,0,20.091,13.825,20.091,30.191
		s-9.216,30.182-20.091,30.182c-10.88,0-20.082-13.815-20.082-30.182S353.03,40.791,363.91,40.791z"/>
</g>
<g>
</g>
<g>
</g>
<g>
</g>
<g>
</g>
<g>
</g>
<g>
</g>
<g>
</g>
<g>
</g>
<g>
</g>
<g>
</g>
<g>
</g>
<g>
</g>
<g>
</g>
<g>
</g>
<g>
</g>
</svg>
