<?xml version="1.0" encoding="iso-8859-1"?>
<!-- Generator: Adobe Illustrator 18.0.0, SVG Export Plug-In . SVG Version: 6.00 Build 0)  -->
<!DOCTYPE svg PUBLIC "-//W3C//DTD SVG 1.1//EN" "http://www.w3.org/Graphics/SVG/1.1/DTD/svg11.dtd">
<svg version="1.1" id="Capa_1" xmlns="http://www.w3.org/2000/svg" xmlns:xlink="http://www.w3.org/1999/xlink" x="0px" y="0px"
	 viewBox="0 0 391.654 391.654" style="enable-background:new 0 0 391.654 391.654;" xml:space="preserve">
<path d="M292.381,70h60c2.761,0,5-2.239,5-5V5c0-2.761-2.239-5-5-5h-60c-2.762,0-5,2.239-5,5v21.883h-17.004
	c-5.522,0-10,4.477-10,10v36.536h-23.496v-20c0-2.761-2.238-5-5-5h-60c-2.762,0-5,2.239-5,5v20h-17.004c-5.523,0-10,4.477-10,10
	v102.398h-31.498v-47c0-2.761-2.238-5-5-5H39.273c-2.762,0-5,2.239-5,5v114c0,2.761,2.238,5,5,5h64.105c2.762,0,5-2.239,5-5v-47
	h31.498v97c0,5.523,4.477,10,10,10h17.004v20c0,2.761,2.238,5,5,5h60c2.762,0,5-2.239,5-5v-14.604h23.496v34.677
	c0,5.523,4.478,10,10,10h17.004v23.765c0,2.761,2.238,5,5,5h60c2.761,0,5-2.239,5-5v-60c0-2.761-2.239-5-5-5h-60
	c-2.762,0-5,2.239-5,5v16.235h-7.004v-73.073h7.004v20c0,2.761,2.238,5,5,5h60c2.761,0,5-2.239,5-5v-60c0-2.761-2.239-5-5-5h-60
	c-2.762,0-5,2.239-5,5v20h-17.004c-5.522,0-10,4.477-10,10v38.396h-23.496v-25.396c0-2.761-2.238-5-5-5h-60c-2.762,0-5,2.239-5,5v20
	h-7.004V93.419h7.004v20c0,2.761,2.238,5,5,5h60c2.762,0,5-2.239,5-5v-20h23.496v36.537c0,5.523,4.478,10,10,10h17.004v21.882
	c0,2.761,2.238,5,5,5h60c2.761,0,5-2.239,5-5v-60c0-2.761-2.239-5-5-5h-60c-2.762,0-5,2.239-5,5v18.118h-7.004V46.883h7.004V65
	C287.381,67.761,289.619,70,292.381,70z"/>
<g>
</g>
<g>
</g>
<g>
</g>
<g>
</g>
<g>
</g>
<g>
</g>
<g>
</g>
<g>
</g>
<g>
</g>
<g>
</g>
<g>
</g>
<g>
</g>
<g>
</g>
<g>
</g>
<g>
</g>
</svg>
