<?xml version="1.0" encoding="utf-8"?>
<!-- Generator: Adobe Illustrator 18.0.0, SVG Export Plug-In . SVG Version: 6.00 Build 0)  -->
<!DOCTYPE svg PUBLIC "-//W3C//DTD SVG 1.1//EN" "http://www.w3.org/Graphics/SVG/1.1/DTD/svg11.dtd">
<svg version="1.1" xmlns="http://www.w3.org/2000/svg" xmlns:xlink="http://www.w3.org/1999/xlink" x="0px" y="0px"
	 viewBox="0 0 3840 2160" enable-background="new 0 0 3840 2160" xml:space="preserve">
<g id="Background" display="none">
	<rect display="inline" width="3840" height="2160"/>
</g>
<g id="Color_Palettes" display="none">
	<rect x="429.7" y="1431.3" display="inline" fill="#F4F4F4" width="3143.4" height="665.9"/>
	<rect id="f48fff" x="622.1" y="1524.1" display="inline" fill="#F48FFF" width="218.2" height="218.2"/>
	<text transform="matrix(1 0 0 1 909.011 1661.5298)" display="inline" font-family="'Minimal'" font-size="103.0517">f48fff</text>
	<rect id="f48fff_1_" x="622.1" y="1810.4" display="inline" fill="#F039FF" width="218.2" height="218.2"/>
	<text transform="matrix(1 0 0 1 909.011 1947.7848)" display="inline" font-family="'Minimal'" font-size="103.0517">f039ff</text>
	<rect id="f48fff_2_" x="1755" y="1810.4" display="inline" fill="#FAC0FF" width="218.2" height="218.2"/>
	<text transform="matrix(1 0 0 1 2041.8658 1947.7848)" display="inline" font-family="'Minimal'" font-size="103.0517">fac0ff</text>
	<rect id="f48fff_4_" x="2859.7" y="1810.4" display="inline" fill="#F145FF" width="218.2" height="218.2"/>
	<text transform="matrix(1 0 0 1 3146.5381 1947.7848)" display="inline" font-family="'Minimal'" font-size="103.0517">f145ff</text>
	<rect id="f48fff_5_" x="2859.7" y="1524.1" display="inline" fill="#C102D1" width="218.2" height="218.2"/>
	<text transform="matrix(1 0 0 1 3146.5381 1661.5298)" display="inline" font-family="'Minimal'" font-size="103.0517">c102d1</text>
	<rect id="f48fff_3_" x="1755" y="1524.1" display="inline" fill="#EE15FF" width="218.2" height="218.2"/>
	<text transform="matrix(1 0 0 1 2041.8658 1661.5298)" display="inline" font-family="'Minimal'" font-size="103.0517">ee15ff</text>
</g>
<g id="Title" display="none">
	<text transform="matrix(1 0 0 1 1400.6071 1213.089)" display="inline" font-family="'Minimal'" font-size="1246.5238">hana</text>
</g>
<g id="Logo">
	<g id="Background_-_Circle">
		<circle cx="829.4" cy="792.4" r="524.6"/>
	</g>
	<g id="Leaves">
		<circle opacity="0.75" fill="#F48FFF" cx="616.4" cy="778.8" r="111"/>
		<circle opacity="0.75" fill="#F48FFF" cx="995.3" cy="768.5" r="111"/>
		<circle opacity="0.75" fill="#F48FFF" cx="646.4" cy="1048.4" r="111"/>
		<circle opacity="0.75" fill="#F039FF" cx="921" cy="820.4" r="121.9"/>
		<circle opacity="0.75" fill="#F68AFF" cx="765.6" cy="884.4" r="121.9"/>
		<circle opacity="0.75" fill="#EC00FF" cx="727.4" cy="768.5" r="121.9"/>
		<circle opacity="0.5" fill="#F257FF" cx="933.9" cy="542.9" r="97.3"/>
		<circle fill="#FAC0FF" cx="691.6" cy="561.9" r="107.6"/>
		<circle opacity="0.5" fill="#F576FF" cx="1142.6" cy="922.9" r="93.9"/>
		<circle opacity="0.5" fill="#EE15FF" cx="1165.4" cy="820.4" r="93.9"/>
		<circle fill="#F992FF" cx="598.5" cy="675.5" r="93.1"/>
		<circle fill="#F992FF" cx="887.5" cy="640.8" r="93.1"/>
		<circle fill="#F992FF" cx="840.6" cy="528" r="93.1"/>
		<circle opacity="0.75" fill="#EA3AF9" cx="1043.7" cy="679.3" r="69.6"/>
		<circle opacity="0.5" fill="#F96EEF" cx="1085.1" cy="923.1" r="77.7"/>
		<circle opacity="0.5" fill="#F941E7" cx="721.9" cy="963.6" r="123.4"/>
		<circle fill="#DA69FF" cx="798.3" cy="773.7" r="98.2"/>
		<circle opacity="0.5" fill="#F145FF" cx="703.3" cy="683.9" r="86.2"/>
		<circle opacity="0.5" fill="#F57BFF" cx="743" cy="1064.5" r="86.2"/>
		<circle opacity="0.5" fill="#FF00FF" cx="921" cy="683.9" r="121.9"/>
		<circle opacity="0.5" fill="#FF00FF" cx="798.3" cy="1023.6" r="121.9"/>
		<circle opacity="0.75" fill="#ED62F9" cx="783.5" cy="507.5" r="61.7"/>
		<circle opacity="0.75" fill="#ED62F9" cx="792.3" cy="454.4" r="61.7"/>
		<circle opacity="0.75" fill="#ED62F9" cx="1027.9" cy="563.5" r="61.7"/>
		<circle opacity="0.75" fill="#ED62F9" cx="584" cy="528" r="61.7"/>
		<circle opacity="0.5" fill="#EF5CFF" cx="1074.8" cy="630.3" r="105"/>
		<circle opacity="0.5" fill="#C171FF" cx="531.2" cy="597.6" r="80.4"/>
		<circle opacity="0.5" fill="#B557FF" cx="974.1" cy="633.7" r="80.4"/>
		<circle opacity="0.5" fill="#C57EFC" cx="1035.8" cy="748.9" r="80.4"/>
		<circle opacity="0.75" fill="#F59FFC" cx="495.2" cy="748.9" r="80.2"/>
		<circle opacity="0.75" fill="#ED0DFF" cx="869.9" cy="1063.9" r="80.2"/>
		<circle opacity="0.75" fill="#EF29FF" cx="593.4" cy="947" r="106.7"/>
		<circle opacity="0.5" fill="#F170FC" cx="1060.4" cy="821.5" r="52.9"/>
		<circle fill="#EA71F4" cx="923.7" cy="934.8" r="50.3"/>
		<circle opacity="0.5" fill="#F799FF" cx="829" cy="982.8" r="81.1"/>
		<circle opacity="0.5" fill="#F381FC" cx="1142.6" cy="783.5" r="99.6"/>
		<circle opacity="0.75" fill="#D406EA" cx="1049.2" cy="783.2" r="53.9"/>
		<circle opacity="0.75" fill="#C102D1" cx="819.5" cy="1068.9" r="53.9"/>
		<circle opacity="0.75" fill="#F361FF" cx="788.2" cy="640.2" r="36"/>
		<circle opacity="0.75" fill="#F24AFF" cx="819.5" cy="582.4" r="36"/>
		<circle opacity="0.75" fill="#EC00FF" cx="845.2" cy="633.7" r="36"/>
		<circle opacity="0.75" fill="#FBCCFF" cx="531.2" cy="845.4" r="36"/>
		<circle opacity="0.75" fill="#DC64F9" cx="995.3" cy="947" r="121.9"/>
		<circle opacity="0.75" fill="#DC64F9" cx="910.1" cy="942.4" r="121.9"/>
	</g>
	<g id="Leaves_-_Black">
		<circle cx="709.4" cy="701.6" r="20.4"/>
		<circle cx="652.1" cy="840.2" r="20.4"/>
		<circle cx="625.9" cy="787.6" r="20.4"/>
		<circle cx="593.4" cy="714.1" r="10.3"/>
		<circle cx="654" cy="679.3" r="10.3"/>
		<circle cx="700.1" cy="620" r="10.3"/>
		<circle cx="598.5" cy="640.6" r="10.3"/>
		<circle cx="553.4" cy="679.3" r="10.3"/>
		<circle cx="570" cy="778.8" r="10.3"/>
		<circle cx="598.7" cy="835.4" r="10.3"/>
		<circle cx="621.4" cy="889.8" r="10.3"/>
		<circle cx="896.4" cy="1003.2" r="10.3"/>
		<circle cx="920.2" cy="963.6" r="10.3"/>
		<circle cx="904.1" cy="1087" r="10.3"/>
		<circle cx="933.9" cy="1053.7" r="10.3"/>
		<circle cx="840.6" cy="1068.9" r="10.3"/>
		<circle cx="1049.2" cy="1006.5" r="10.3"/>
		<circle cx="995.3" cy="1016.8" r="10.3"/>
		<circle cx="1081" cy="952.7" r="10.3"/>
		<circle cx="944.2" cy="845.4" r="10.3"/>
		<circle cx="1060.4" cy="797.7" r="10.3"/>
		<circle cx="940.6" cy="744.2" r="10.3"/>
		<circle cx="1085.1" cy="860.7" r="10.3"/>
		<circle cx="1095.4" cy="762.5" r="10.3"/>
		<circle cx="881.2" cy="690" r="10.3"/>
		<circle cx="930.3" cy="612.4" r="10.3"/>
		<circle cx="963.5" cy="592.7" r="10.3"/>
		<circle cx="955.3" cy="703.8" r="10.3"/>
		<circle cx="1001" cy="689.6" r="10.3"/>
		<circle cx="884.3" cy="569.2" r="10.3"/>
		<circle cx="859.6" cy="507.5" r="10.3"/>
		<circle cx="765.6" cy="510.7" r="10.3"/>
		<circle cx="710.6" cy="553.2" r="10.3"/>
		<circle cx="654" cy="613.5" r="10.3"/>
		<circle cx="676.4" cy="647.4" r="10.3"/>
		<circle cx="732.7" cy="654.4" r="10.3"/>
		<circle cx="755.3" cy="698.5" r="10.3"/>
		<circle cx="633.9" cy="968.2" r="10.3"/>
		<circle cx="655.1" cy="1101.2" r="10.3"/>
		<circle cx="873.4" cy="740.8" r="20.4"/>
		<circle cx="1054.5" cy="710" r="20.4"/>
		<circle cx="923.7" cy="667.8" r="20.4"/>
		<circle cx="980.5" cy="638.8" r="20.4"/>
		<circle cx="812.8" cy="528" r="20.4"/>
		<circle cx="940.6" cy="787.6" r="20.4"/>
		<circle cx="1027.9" cy="845.4" r="20.4"/>
		<circle cx="930.5" cy="914.4" r="20.4"/>
		<circle cx="830.9" cy="1011.2" r="20.4"/>
		<circle cx="887.5" cy="1053.7" r="20.4"/>
		<circle cx="944.2" cy="1006.3" r="20.4"/>
		<circle cx="689" cy="995.6" r="20.4"/>
		<circle cx="700.1" cy="1068.9" r="20.4"/>
		<circle cx="747.6" cy="773.7" r="32.9"/>
		<circle cx="677.7" cy="922.9" r="32.9"/>
		<circle cx="633.9" cy="1044.1" r="32.9"/>
		<circle cx="873.4" cy="820.4" r="32.9"/>
		<circle cx="996.3" cy="754.5" r="32.9"/>
		<circle cx="998.5" cy="953.3" r="32.9"/>
		<circle cx="863.8" cy="947" r="32.9"/>
		<circle cx="765.6" cy="569.2" r="32.9"/>
		<circle cx="864.7" cy="622.4" r="32.9"/>
	</g>
	<g id="Tree">
		<path d="M835,1159.5c0,0-114.4-133.2,0-247.6c114.4-114.4,233.1,81.1,327.8-13.7c-32.4,12-80.2,14.6-174.2-23.5
			c-93.9-38-158.8,6.4-186.1,33.7c17.1-49.5,47.8-105.9,23.9-206.6s17.1-153.7,76.8-181c-49.5,15.4-112.7,58.1-104.2,160.5
			c-22.2-10.2-20.5-59.8-92.2-90.5c23.9,25.6,71.7,51.2,82,122.9c0,30.7,1.7,90.5-34.1,158.8c-18.8-18.8-51.2-47.8-61.5-109.3
			S589.1,671.2,584,671.2c35.9,27.3,95.6,54.6,104.2,150.3c13.7,52.9,51.2,90.5,51.2,90.5s-27.3,152,27.3,247.6
			C835,1159.5,835,1159.5,835,1159.5z"/>
	</g>
</g>
</svg>
